<?xml version="1.0" standalone="no"?>
<!DOCTYPE svg PUBLIC "-//W3C//DTD SVG 20010904//EN"
 "http://www.w3.org/TR/2001/REC-SVG-20010904/DTD/svg10.dtd">
<svg version="1.0" xmlns="http://www.w3.org/2000/svg"
 width="500.000000pt" height="500.000000pt" viewBox="0 0 500.000000 500.000000"
 preserveAspectRatio="xMidYMid meet">

<g transform="translate(0.000000,500.000000) scale(0.100000,-0.100000)"
fill="#000000" stroke="none">
<path d="M3270 4621 c-14 -5 -43 -9 -65 -10 -55 -1 -141 -24 -255 -68 -256
-97 -477 -248 -633 -431 l-69 -80 -67 43 c-229 148 -432 212 -706 222 -308 11
-529 -43 -780 -192 -185 -110 -323 -241 -445 -422 -166 -247 -243 -498 -243
-793 0 -368 125 -687 377 -966 l66 -72 -73 -45 c-233 -146 -370 -426 -337
-693 37 -301 225 -523 520 -616 64 -19 95 -23 210 -23 121 1 143 4 215 29 104
36 200 93 279 166 l63 59 73 -30 c417 -169 869 -193 1303 -69 224 65 429 161
595 280 46 33 86 60 90 60 4 0 13 -24 20 -52 6 -29 30 -89 51 -133 118 -238
345 -389 606 -402 136 -7 241 14 365 74 81 39 108 59 185 137 138 138 201 278
212 467 18 314 -168 607 -453 715 -38 14 -70 27 -72 29 -2 1 39 34 90 73 401
302 628 787 604 1292 -19 395 -167 732 -446 1011 -213 214 -461 351 -759 421
-67 15 -131 21 -291 23 -113 3 -216 0 -230 -4z m-2193 -612 c90 -47 152 -86
150 -93 -3 -6 -37 -94 -76 -196 -40 -102 -77 -190 -84 -196 -7 -6 -124 -64
-260 -129 l-249 -118 -151 78 c-84 43 -155 81 -159 84 -10 9 43 108 106 201
107 157 317 335 496 419 36 17 67 31 69 31 2 0 73 -36 158 -81z m1006 -8 c54
-33 112 -72 130 -86 71 -59 192 -184 241 -250 59 -80 111 -165 99 -165 -4 0
-67 25 -140 56 l-132 56 -158 167 c-87 91 -169 179 -182 193 l-23 27 22 30
c12 17 27 31 34 31 6 0 56 -27 109 -59z m-85 -262 l181 -190 -28 -77 c-77
-206 -112 -297 -119 -304 -4 -3 -113 -19 -241 -34 l-235 -28 -99 105 c-54 57
-136 145 -183 195 l-83 91 76 199 c41 109 77 200 78 202 3 3 357 28 431 31 41
1 42 0 222 -190z m-1649 -486 c80 -42 149 -80 152 -85 3 -4 18 -122 33 -261
l29 -252 -67 -132 -66 -132 -117 55 c-65 31 -123 58 -129 61 -14 5 -37 94 -55
205 -17 112 -7 359 20 468 26 105 41 150 48 150 3 0 72 -34 152 -77z m1820
-395 c55 -87 101 -160 101 -162 0 -2 -82 -6 -182 -9 -253 -7 -424 -41 -660
-129 -60 -22 -111 -38 -113 -36 -5 4 237 442 254 460 4 4 112 20 241 36 211
25 236 27 246 13 6 -9 57 -87 113 -173z m523 -198 c-2 -17 -7 -32 -11 -35 -4
-2 -29 2 -57 9 l-49 13 30 13 c17 6 39 16 50 20 35 15 42 11 37 -20z m-1764
-136 c147 -25 270 -49 275 -53 4 -4 -43 -37 -105 -74 -141 -84 -299 -215 -391
-324 -50 -59 -73 -79 -79 -70 -4 8 -30 79 -57 160 l-50 147 64 130 c36 71 67
130 70 130 3 0 126 -21 273 -46z m2063 -156 l144 -73 3 -676 2 -675 -83 -47
c-45 -25 -115 -60 -155 -76 l-72 -30 0 825 c0 480 4 824 9 824 5 0 74 -33 152
-72z m-1651 -350 l0 -371 -67 64 c-80 77 -107 96 -191 139 l-62 32 2 161 3
161 62 44 c49 34 238 141 251 142 1 0 2 -167 2 -372z m-448 -229 c56 -12 198
-73 198 -85 0 -4 -12 -22 -26 -41 -24 -31 -27 -32 -47 -18 -32 22 -39 19 -69
-28 l-28 -42 26 -21 27 -22 -24 -61 c-23 -60 -25 -61 -56 -55 -30 6 -32 4 -42
-33 -17 -61 -14 -73 20 -80 29 -6 31 -8 25 -42 -3 -20 -6 -55 -6 -78 0 -38 -2
-42 -30 -48 -23 -5 -29 -11 -26 -23 3 -10 8 -34 11 -54 6 -32 11 -37 37 -40
28 -3 33 -9 55 -72 l25 -68 -21 -22 -21 -22 27 -39 c14 -22 28 -42 29 -44 2
-2 14 0 27 6 20 9 27 6 56 -29 39 -47 35 -54 -47 -91 -123 -55 -267 -68 -402
-35 -54 13 -165 61 -174 76 -6 9 56 93 74 100 5 2 20 -4 35 -14 24 -16 26 -16
41 2 8 10 22 32 30 48 17 31 14 37 -35 65 -11 7 -9 22 13 82 14 41 29 73 33
73 5 -1 20 -4 35 -8 25 -6 28 -3 37 31 19 75 19 76 -24 88 l-40 12 0 64 0 63
38 9 c41 10 41 10 26 73 l-12 46 -42 -6 -42 -7 -21 58 c-24 64 -26 56 32 98
18 13 18 15 -10 59 -16 25 -33 46 -37 46 -5 0 -23 -10 -40 -22 l-30 -22 -33
40 c-19 21 -34 43 -34 47 0 12 116 64 180 81 66 18 209 20 282 5z m-530 -196
c32 -31 35 -48 11 -61 -15 -9 -13 -14 13 -56 24 -39 33 -46 52 -41 19 5 25 0
37 -27 13 -31 12 -34 -8 -42 -12 -6 -23 -11 -25 -11 -1 -1 3 -25 10 -54 10
-43 15 -51 35 -51 19 0 23 -5 23 -30 0 -23 -4 -30 -20 -30 -14 0 -22 -11 -30
-41 -15 -53 -10 -73 18 -77 25 -4 25 -21 1 -84 -9 -23 -15 -26 -29 -18 -26 14
-26 14 -59 -34 l-31 -44 27 -20 27 -20 -38 -46 c-21 -26 -42 -46 -46 -44 -20
8 -83 96 -115 161 -37 75 -65 195 -65 275 0 71 26 178 60 251 30 63 104 171
117 171 4 0 20 -12 35 -27z m873 -15 c45 -53 100 -164 120 -243 45 -177 -9
-405 -129 -540 l-35 -40 -35 40 c-38 43 -38 41 18 79 19 12 18 14 -13 59 -17
26 -35 47 -38 47 -4 0 -14 -7 -24 -16 -26 -23 -43 -12 -58 35 -14 49 -11 57
29 64 33 7 36 19 19 81 -10 37 -12 38 -45 33 l-35 -6 3 47 c2 26 8 46 13 45
62 -9 59 -11 71 45 12 52 12 53 -13 63 -13 5 -28 9 -33 9 -9 0 7 59 20 73 4 5
19 1 33 -8 25 -16 26 -16 58 31 l32 47 -29 23 -28 23 24 26 c13 14 27 25 31
25 4 0 24 -19 44 -42z"/>
</g>
</svg>
