<svg version="1.1" id="Layer_1" xmlns="http://www.w3.org/2000/svg" xmlns:xlink="http://www.w3.org/1999/xlink" x="0px" y="0px"
	 width="100%" viewBox="0 0 512 512" enable-background="new 0 0 512 512" xml:space="preserve">
<path fill="#FFFFFF" opacity="1.000000" stroke="none" 
	d="
M1.000000,63.000000 
	C1.000000,42.342995 1.000000,21.685989 0.999999,1.021738 
	C171.577225,1.014492 342.154449,1.014492 513.000000,1.014492 
	C513.000000,120.354630 513.000000,239.709473 512.606262,359.381226 
	C512.137085,357.872711 512.298767,356.000671 511.950226,354.229004 
	C507.707520,332.664032 500.404114,312.393616 486.473999,294.995758 
	C483.197693,290.903870 481.728638,286.561737 481.861084,281.089996 
	C482.260132,264.602997 482.009796,248.100189 482.002777,231.603546 
	C481.999939,224.888351 480.629089,223.083282 473.993408,220.498962 
	C473.993683,215.710022 473.991608,211.382828 474.374329,207.030853 
	C480.318054,205.772247 482.011536,201.859863 482.009918,196.684540 
	C481.996490,153.537933 482.005371,110.391335 481.998535,67.244728 
	C481.997650,61.682518 479.236053,59.004364 473.533539,59.000153 
	C462.038879,58.991665 450.544250,58.997623 439.049591,58.997623 
	C435.110443,58.997623 431.171265,58.997627 427.002319,58.997627 
	C427.002319,48.489735 427.214874,38.514725 426.936005,28.553471 
	C426.707306,20.384136 422.653503,14.102479 416.505859,8.763217 
	C410.145142,3.238868 402.897461,1.903673 394.810577,1.909695 
	C380.745209,1.920169 366.943207,15.552342 366.991547,29.957050 
	C367.023743,39.555603 366.997681,49.154354 366.997681,58.762650 
	C283.080261,58.762650 199.702988,58.762650 116.002365,58.762650 
	C116.002365,49.071270 116.050713,39.610867 115.986275,30.151230 
	C115.939194,23.240557 113.057350,17.451921 108.740746,12.203423 
	C101.882042,3.864022 92.866074,1.213487 82.508751,2.007122 
	C73.995750,2.659435 67.180954,6.431587 61.960365,13.216420 
	C56.780186,19.948740 55.068001,27.700373 55.009144,35.957634 
	C54.954975,43.557381 54.997627,51.157825 54.997627,58.997627 
	C39.489914,58.997627 24.521702,59.113693 9.557618,58.916355 
	C5.796984,58.866760 3.051638,59.954418 1.000000,63.000000 
z"/>
<path fill="#FFFFFF" opacity="1.000000" stroke="none" 
	d="
M513.000000,392.000000 
	C513.000000,432.308502 513.000000,472.616974 513.000000,512.945068 
	C342.333313,512.945068 171.666656,512.945068 1.000000,512.945068 
	C1.000000,487.239166 1.000000,461.588226 1.349701,435.556946 
	C4.032680,438.048431 6.947106,439.078522 10.729004,439.074188 
	C90.888535,438.982849 171.048203,439.019684 251.207779,438.951843 
	C254.436935,438.949097 256.279938,439.686584 258.132568,442.770020 
	C262.611572,450.224792 267.260406,457.760315 273.001587,464.233826 
	C283.233124,475.770538 294.628906,486.052765 308.209839,493.871368 
	C325.994415,504.110046 344.959045,510.407928 365.309143,511.826233 
	C375.316650,512.523743 385.490509,511.752716 395.525970,510.901855 
	C408.440430,509.806946 420.809448,505.992493 432.572540,500.702118 
	C453.190063,491.429565 470.656281,477.901031 484.511780,459.954254 
	C495.428802,445.813690 503.959412,430.426117 508.045441,412.840851 
	C509.661499,405.885651 511.346436,398.946472 513.000000,392.000000 
z"/>
<path fill="#020101" opacity="1.000000" stroke="none" 
	d="
M1.000000,63.468658 
	C3.051638,59.954418 5.796984,58.866760 9.557618,58.916355 
	C24.521702,59.113693 39.489914,58.997627 54.997627,58.997627 
	C54.997627,51.157825 54.954975,43.557381 55.009144,35.957634 
	C55.068001,27.700373 56.780186,19.948740 61.960365,13.216420 
	C67.180954,6.431587 73.995750,2.659435 82.508751,2.007122 
	C92.866074,1.213487 101.882042,3.864022 108.740746,12.203423 
	C113.057350,17.451921 115.939194,23.240557 115.986275,30.151230 
	C116.050713,39.610867 116.002365,49.071270 116.002365,58.762650 
	C199.702988,58.762650 283.080261,58.762650 366.997681,58.762650 
	C366.997681,49.154354 367.023743,39.555603 366.991547,29.957050 
	C366.943207,15.552342 380.745209,1.920169 394.810577,1.909695 
	C402.897461,1.903673 410.145142,3.238868 416.505859,8.763217 
	C422.653503,14.102479 426.707306,20.384136 426.936005,28.553471 
	C427.214874,38.514725 427.002319,48.489735 427.002319,58.997627 
	C431.171265,58.997627 435.110443,58.997623 439.049591,58.997623 
	C450.544250,58.997623 462.038879,58.991665 473.533539,59.000153 
	C479.236053,59.004364 481.997650,61.682518 481.998535,67.244728 
	C482.005371,110.391335 481.996490,153.537933 482.009918,196.684540 
	C482.011536,201.859863 480.318054,205.772247 474.130737,206.768127 
	C468.109863,205.569550 466.198822,202.006561 466.178253,196.910110 
	C466.146057,188.942215 466.027191,180.974670 466.051880,172.548782 
	C466.158722,166.814346 466.158722,161.538116 466.158722,156.243988 
	C315.861908,156.243988 166.052841,156.243988 16.223730,156.243988 
	C16.223730,162.073242 16.223730,167.549316 16.141525,173.485992 
	C16.050831,205.526657 16.050417,237.106720 16.027618,268.686768 
	C16.022547,275.711700 14.774053,277.287689 7.609200,279.084351 
	C5.157448,277.675812 3.078724,276.337921 1.000000,275.000000 
	C1.000000,204.645767 1.000000,134.291550 1.000000,63.468658 
M82.163483,17.773697 
	C75.337173,19.992785 71.160919,24.451700 71.099365,30.869074 
	C70.904671,51.168892 70.898956,71.472839 71.086716,91.772720 
	C71.150421,98.659966 76.013412,103.657547 83.598320,105.447006 
	C92.169029,106.081284 99.719536,101.661491 99.947578,93.842918 
	C100.580711,72.134804 100.603912,50.379314 99.869438,28.676342 
	C99.598572,20.672655 90.918816,16.024025 82.163483,17.773697 
M394.056152,17.638542 
	C386.714691,19.699598 382.428101,24.265629 382.327606,31.740065 
	C382.062286,51.473598 382.050903,71.215317 382.312195,90.948830 
	C382.417999,98.937111 387.481567,104.089897 395.491943,105.497696 
	C405.300781,105.231178 411.734772,99.996880 411.850311,91.177551 
	C412.111908,71.210602 412.145264,51.233982 411.812866,31.268930 
	C411.660583,22.123333 403.642975,16.146544 394.056152,17.638542 
M16.232967,123.813347 
	C16.232967,129.395599 16.232967,134.977859 16.232967,140.578125 
	C166.510941,140.578125 316.014160,140.578125 465.980011,140.578125 
	C465.980011,134.536545 465.980011,128.764267 466.134430,122.066269 
	C466.134430,106.286606 466.134430,90.506943 466.134430,74.441795 
	C452.937897,74.441795 440.217865,74.441795 426.936737,74.441795 
	C426.936737,80.471016 427.165375,86.267197 426.892853,92.039719 
	C426.146362,107.853180 413.708527,120.046692 397.841064,120.767891 
	C383.194183,121.433617 369.779083,110.151161 367.796173,94.942551 
	C366.923828,88.251930 367.097687,81.424896 366.790955,74.534554 
	C283.073120,74.534554 199.591461,74.534554 116.147202,74.534554 
	C115.776825,81.883514 115.790016,88.889801 115.000023,95.804321 
	C113.283104,110.832031 97.691826,122.536522 82.707108,120.415703 
	C66.479713,118.119003 56.202057,106.542175 55.950142,90.196617 
	C55.869202,84.944695 55.937458,79.690468 55.937458,74.565887 
	C42.263901,74.565887 29.382467,74.565887 16.428278,74.565887 
	C16.428278,90.945953 16.428278,106.911942 16.232967,123.813347 
z"/>
<path fill="#030302" opacity="1.000000" stroke="none" 
	d="
M513.000000,391.531342 
	C511.346436,398.946472 509.661499,405.885651 508.045441,412.840851 
	C503.959412,430.426117 495.428802,445.813690 484.511780,459.954254 
	C470.656281,477.901031 453.190063,491.429565 432.572540,500.702118 
	C420.809448,505.992493 408.440430,509.806946 395.525970,510.901855 
	C385.490509,511.752716 375.316650,512.523743 365.309143,511.826233 
	C344.959045,510.407928 325.994415,504.110046 308.209839,493.871368 
	C294.628906,486.052765 283.233124,475.770538 273.001587,464.233826 
	C267.260406,457.760315 262.611572,450.224792 258.132568,442.770020 
	C256.279938,439.686584 254.436935,438.949097 251.207779,438.951843 
	C171.048203,439.019684 90.888535,438.982849 10.729004,439.074188 
	C6.947106,439.078522 4.032680,438.048431 1.349701,435.088287 
	C1.000000,389.645782 1.000000,344.291534 1.351434,298.368439 
	C3.795584,296.477020 5.888300,295.154449 8.348598,293.918457 
	C14.729841,295.654663 16.026449,297.359924 16.029217,303.989746 
	C16.045055,341.953613 16.037067,379.917480 16.037170,417.881348 
	C16.037176,419.617859 16.037172,421.354340 16.037172,422.936768 
	C94.144539,422.936768 171.492935,422.936768 249.158539,422.936768 
	C248.668884,421.179565 248.316391,419.752960 247.875076,418.354370 
	C235.706451,379.788544 239.734665,342.911591 259.458069,307.694794 
	C262.803070,301.722137 265.221558,300.894440 271.894867,303.364899 
	C276.628845,308.184357 274.045441,312.401794 271.688629,316.769836 
	C252.694641,351.972961 250.306412,388.288055 266.776581,424.777100 
	C285.151581,465.486237 317.344330,488.984497 361.467468,495.713837 
	C376.398590,497.991028 391.361450,497.255981 406.296326,492.952606 
	C407.150848,492.750305 407.694733,492.505066 408.182220,492.237610 
	C408.125824,492.215454 408.158417,492.332184 408.557678,492.327148 
	C413.988953,490.637695 419.163513,489.288544 424.031555,487.218628 
	C501.487946,454.284119 522.589478,354.981354 465.146698,293.405243 
	C449.745361,276.895630 431.259888,265.175842 409.076721,259.845337 
	C409.073395,259.892334 409.161285,259.858368 408.936401,259.591797 
	C407.799561,259.206909 406.887634,259.088654 405.645508,258.766754 
	C387.560303,254.024414 369.727722,254.015656 351.862061,257.779602 
	C329.662048,262.456696 310.353912,272.688324 293.933533,288.327515 
	C290.207184,291.876617 286.416656,294.561554 280.950378,291.181915 
	C277.414154,285.566803 277.301819,282.566772 282.040222,278.842560 
	C292.487213,270.631622 303.337189,262.933502 314.293488,255.045853 
	C314.864655,254.878662 315.165100,254.691757 315.798706,254.378052 
	C323.858856,251.253876 331.497040,247.987045 339.357727,245.395096 
	C342.393066,244.394226 343.100464,243.111435 343.068390,240.200943 
	C342.928955,227.548447 342.997986,214.893555 343.012299,202.239548 
	C343.021729,193.907425 345.401581,191.418671 353.592743,191.389786 
	C367.745087,191.339859 381.897797,191.343002 396.050201,191.388458 
	C404.266815,191.414841 406.715637,193.912598 406.738220,202.193527 
	C406.770874,214.181458 406.900757,226.172699 406.655792,238.155685 
	C406.578918,241.916428 407.421082,243.674728 411.398041,244.596497 
	C424.598969,247.656189 436.911255,253.078247 448.356171,260.305237 
	C454.318787,264.070404 459.947662,268.364075 466.186584,272.741272 
	C466.186584,259.301422 466.368347,246.350739 466.107330,233.408966 
	C465.983185,227.252457 467.547607,222.700562 473.991028,220.960678 
	C480.629089,223.083282 481.999939,224.888351 482.002777,231.603546 
	C482.009796,248.100189 482.260132,264.602997 481.861084,281.089996 
	C481.728638,286.561737 483.197693,290.903870 486.473999,294.995758 
	C500.404114,312.393616 507.707520,332.664032 511.950226,354.229004 
	C512.298767,356.000671 512.137085,357.872711 512.606262,359.849060 
	C513.000000,370.354218 513.000000,380.708466 513.000000,391.531342 
M386.358917,206.788544 
	C377.095795,206.788544 367.832672,206.788544 358.436890,206.788544 
	C358.436890,218.211395 358.436890,228.917282 358.436890,239.568787 
	C369.705261,239.568787 380.582550,239.568787 391.813354,239.568787 
	C391.813354,229.344360 391.777649,219.539078 391.832550,209.734299 
	C391.852020,206.254059 389.416168,206.856903 386.358917,206.788544 
z"/>
<path fill="#FFFFFF" opacity="1.000000" stroke="none" 
	d="
M7.981016,293.831909 
	C5.888300,295.154449 3.795584,296.477020 1.351434,297.899780 
	C1.000000,290.645752 1.000000,283.291504 1.000000,275.468628 
	C3.078724,276.337921 5.157448,277.675812 7.615299,279.539734 
	C7.989955,284.654449 7.985486,289.243164 7.981016,293.831909 
z"/>
<path fill="#EEE6E3" opacity="1.000000" stroke="none" 
	d="
M8.348597,293.918457 
	C7.985486,289.243164 7.989955,284.654449 7.988326,279.610321 
	C14.774053,277.287689 16.022547,275.711700 16.027618,268.686768 
	C16.050417,237.106720 16.050831,205.526657 16.595837,173.487061 
	C166.736588,173.020660 316.340820,173.013824 465.945038,173.006989 
	C466.027191,180.974670 466.146057,188.942215 466.178253,196.910110 
	C466.198822,202.006561 468.109863,205.569550 473.745941,206.792892 
	C473.991608,211.382828 473.993683,215.710022 473.993408,220.498962 
	C467.547607,222.700562 465.983185,227.252457 466.107330,233.408966 
	C466.368347,246.350739 466.186584,259.301422 466.186584,272.741272 
	C459.947662,268.364075 454.318787,264.070404 448.356171,260.305237 
	C436.911255,253.078247 424.598969,247.656189 411.398041,244.596497 
	C407.421082,243.674728 406.578918,241.916428 406.655792,238.155685 
	C406.900757,226.172699 406.770874,214.181458 406.738220,202.193527 
	C406.715637,193.912598 404.266815,191.414841 396.050201,191.388458 
	C381.897797,191.343002 367.745087,191.339859 353.592743,191.389786 
	C345.401581,191.418671 343.021729,193.907425 343.012299,202.239548 
	C342.997986,214.893555 342.928955,227.548447 343.068390,240.200943 
	C343.100464,243.111435 342.393066,244.394226 339.357727,245.395096 
	C331.497040,247.987045 323.858856,251.253876 315.614563,254.177658 
	C314.970703,253.974060 314.844177,253.844055 314.900757,253.404175 
	C315.994781,250.683029 317.654755,248.283951 317.694214,245.858536 
	C317.938049,230.862823 317.885773,215.860748 317.786011,200.861755 
	C317.741974,194.244202 314.961243,191.458633 308.266724,191.407608 
	C293.267944,191.293259 278.266846,191.279419 263.268433,191.416641 
	C256.844269,191.475433 254.102737,194.317566 254.068893,200.637680 
	C253.988556,215.636917 253.994476,230.637085 254.065201,245.636414 
	C254.096573,252.288330 256.867004,254.983444 263.575012,255.005920 
	C278.407837,255.055649 293.241028,255.045563 308.073822,254.991150 
	C309.882233,254.984497 311.689148,254.556396 313.627991,254.499420 
	C313.759247,254.675217 314.022736,255.026138 314.022736,255.026138 
	C303.337189,262.933502 292.487213,270.631622 282.040222,278.842560 
	C277.301819,282.566772 277.414154,285.566803 280.638184,291.372742 
	C277.582825,295.572845 274.656799,299.308167 271.730743,303.043518 
	C265.221558,300.894440 262.803070,301.722137 259.458069,307.694794 
	C239.734665,342.911591 235.706451,379.788544 247.875076,418.354370 
	C248.316391,419.752960 248.668884,421.179565 249.158539,422.936768 
	C171.492935,422.936768 94.144539,422.936768 16.037172,422.936768 
	C16.037172,421.354340 16.037176,419.617859 16.037170,417.881348 
	C16.037067,379.917480 16.045055,341.953613 16.029217,303.989746 
	C16.026449,297.359924 14.729841,295.654663 8.348597,293.918457 
M139.896194,206.572418 
	C139.896194,205.405945 139.897446,204.239487 139.895996,203.073013 
	C139.884109,193.499054 137.757568,191.379349 128.091354,191.372055 
	C114.093704,191.361481 100.095650,191.307144 86.098549,191.395401 
	C78.818314,191.441299 76.172256,194.149017 76.144791,201.417328 
	C76.089378,216.081329 76.075645,230.745956 76.152016,245.409775 
	C76.188148,252.347992 78.940041,254.990219 85.950279,255.009964 
	C100.447723,255.050797 114.945404,255.037750 129.442932,255.016342 
	C137.375015,255.004623 139.867416,252.514389 139.887756,244.545502 
	C139.919250,232.214310 139.896133,219.882980 139.896194,206.572418 
M222.693665,254.814865 
	C227.347214,253.558868 228.838699,250.142929 228.841721,245.748383 
	C228.852036,230.775406 228.907333,215.802063 228.817596,200.829620 
	C228.778992,194.387115 226.117386,191.489227 219.813278,191.425156 
	C204.509216,191.269562 189.201187,191.264084 173.897461,191.437897 
	C167.845703,191.506607 165.153061,194.430893 165.114273,200.541550 
	C165.018173,215.680283 165.013748,230.820511 165.115677,245.959167 
	C165.157990,252.242310 168.049026,254.986862 174.425644,255.001221 
	C190.229599,255.036789 206.033768,254.969528 222.693665,254.814865 
M165.086411,305.841003 
	C165.086655,320.340271 165.051468,334.839661 165.102295,349.338745 
	C165.127289,356.471985 167.697113,359.127289 174.640152,359.153961 
	C189.472519,359.210938 204.305359,359.207397 219.137756,359.156097 
	C226.147476,359.131836 228.811996,356.503967 228.844681,349.493103 
	C228.913055,334.827484 228.909592,320.161194 228.847351,305.495544 
	C228.817368,298.430054 226.204605,295.750824 219.246201,295.716217 
	C204.413986,295.642426 189.580948,295.646179 174.748672,295.714569 
	C167.798309,295.746613 165.820679,297.739288 165.086411,305.841003 
M76.132996,328.499939 
	C76.133469,335.496460 76.074738,342.493622 76.151024,349.489319 
	C76.227715,356.521637 78.828812,359.132690 85.836617,359.156555 
	C100.662399,359.207031 115.488632,359.211212 130.314377,359.154388 
	C137.255478,359.127777 139.846649,356.473114 139.873627,349.369934 
	C139.929276,334.710785 139.936249,320.051025 139.871155,305.391968 
	C139.840012,298.377808 137.213028,295.745880 130.195190,295.713867 
	C115.369537,295.646362 100.543098,295.641846 85.717514,295.716248 
	C78.767059,295.751099 76.215500,298.418335 76.148796,305.511017 
	C76.079880,312.840057 76.133171,320.170258 76.132996,328.499939 
z"/>
<path fill="#E83234" opacity="1.000000" stroke="none" 
	d="
M16.428278,122.877945 
	C16.428278,106.911942 16.428278,90.945953 16.428278,74.565887 
	C29.382467,74.565887 42.263901,74.565887 55.937458,74.565887 
	C55.937458,79.690468 55.869202,84.944695 55.950142,90.196617 
	C56.202057,106.542175 66.479713,118.119003 82.707108,120.415703 
	C97.691826,122.536522 113.283104,110.832031 115.000023,95.804321 
	C115.790016,88.889801 115.776825,81.883514 116.147202,74.534554 
	C199.591461,74.534554 283.073120,74.534554 366.790955,74.534554 
	C367.097687,81.424896 366.923828,88.251930 367.796173,94.942551 
	C369.779083,110.151161 383.194183,121.433617 397.841064,120.767891 
	C413.708527,120.046692 426.146362,107.853180 426.892853,92.039719 
	C427.165375,86.267197 426.936737,80.471016 426.936737,74.441795 
	C440.217865,74.441795 452.937897,74.441795 466.134430,74.441795 
	C466.134430,90.506943 466.134430,106.286606 465.590118,122.537117 
	C317.170441,123.010010 169.295105,123.012505 21.419748,123.008461 
	C19.755922,123.008415 18.092102,122.923325 16.428278,122.877945 
z"/>
<path fill="#B02425" opacity="1.000000" stroke="none" 
	d="
M16.330624,123.345642 
	C18.092102,122.923325 19.755922,123.008415 21.419748,123.008461 
	C169.295105,123.012505 317.170441,123.010010 465.512909,122.999977 
	C465.980011,128.764267 465.980011,134.536545 465.980011,140.578125 
	C316.014160,140.578125 166.510941,140.578125 16.232967,140.578125 
	C16.232967,134.977859 16.232967,129.395599 16.330624,123.345642 
z"/>
<path fill="#D8D1D0" opacity="1.000000" stroke="none" 
	d="
M466.051880,172.548782 
	C316.340820,173.013824 166.736588,173.020660 16.678043,173.026459 
	C16.223730,167.549316 16.223730,162.073242 16.223730,156.243988 
	C166.052841,156.243988 315.861908,156.243988 466.158722,156.243988 
	C466.158722,161.538116 466.158722,166.814346 466.051880,172.548782 
z"/>
<path fill="#FBCC38" opacity="1.000000" stroke="none" 
	d="
M394.899597,105.097084 
	C387.481567,104.089897 382.417999,98.937111 382.312195,90.948830 
	C382.050903,71.215317 382.062286,51.473598 382.327606,31.740065 
	C382.428101,24.265629 386.714691,19.699598 394.584412,18.011665 
	C398.085693,23.192812 399.189240,28.357973 399.113037,34.060184 
	C398.890503,50.711746 398.870178,67.370567 399.109711,84.021667 
	C399.216278,91.431351 398.872620,98.581413 394.899597,105.097084 
z"/>
<path fill="#FECF39" opacity="1.000000" stroke="none" 
	d="
M82.966942,105.050064 
	C76.013412,103.657547 71.150421,98.659966 71.086716,91.772720 
	C70.898956,71.472839 70.904671,51.168892 71.099365,30.869074 
	C71.160919,24.451700 75.337173,19.992785 82.689674,18.105238 
	C84.813530,23.389668 87.639969,28.305826 87.789314,33.302006 
	C88.341362,51.770760 87.939194,70.266357 88.049049,88.750961 
	C88.084961,94.794937 86.605453,100.222763 82.966942,105.050064 
z"/>
<path fill="#EDAB08" opacity="1.000000" stroke="none" 
	d="
M83.282631,105.248535 
	C86.605453,100.222763 88.084961,94.794937 88.049049,88.750961 
	C87.939194,70.266357 88.341362,51.770760 87.789314,33.302006 
	C87.639969,28.305826 84.813530,23.389668 83.065338,18.104755 
	C90.918816,16.024025 99.598572,20.672655 99.869438,28.676342 
	C100.603912,50.379314 100.580711,72.134804 99.947578,93.842918 
	C99.719536,101.661491 92.169029,106.081284 83.282631,105.248535 
z"/>
<path fill="#F2AF09" opacity="1.000000" stroke="none" 
	d="
M395.195770,105.297394 
	C398.872620,98.581413 399.216278,91.431351 399.109711,84.021667 
	C398.870178,67.370567 398.890503,50.711746 399.113037,34.060184 
	C399.189240,28.357973 398.085693,23.192812 394.965576,18.029751 
	C403.642975,16.146544 411.660583,22.123333 411.812866,31.268930 
	C412.145264,51.233982 412.111908,71.210602 411.850311,91.177551 
	C411.734772,99.996880 405.300781,105.231178 395.195770,105.297394 
z"/>
<path fill="#FECF39" opacity="1.000000" stroke="none" 
	d="
M271.894867,303.364899 
	C274.656799,299.308167 277.582825,295.572845 280.821075,291.646667 
	C286.416656,294.561554 290.207184,291.876617 293.933533,288.327515 
	C310.353912,272.688324 329.662048,262.456696 351.862061,257.779602 
	C369.727722,254.015656 387.560303,254.024414 405.866272,259.042206 
	C407.331940,259.633667 408.246613,259.746033 409.161285,259.858398 
	C409.161285,259.858368 409.073395,259.892334 409.179443,260.183929 
	C410.058960,261.076508 410.764160,261.805420 411.615845,262.259796 
	C431.192627,272.704376 447.319244,287.013550 459.329834,305.683014 
	C479.510162,337.051788 485.140320,371.128632 476.280426,407.228760 
	C468.623749,438.426422 451.315613,463.367493 424.681335,481.593933 
	C419.262024,485.302460 413.670532,488.759277 408.158417,492.332184 
	C408.158417,492.332184 408.125824,492.215454 407.868805,492.159729 
	C407.069733,492.372589 406.527710,492.641144 405.985657,492.909668 
	C391.361450,497.255981 376.398590,497.991028 361.467468,495.713837 
	C317.344330,488.984497 285.151581,465.486237 266.776581,424.777100 
	C250.306412,388.288055 252.694641,351.972961 271.688629,316.769836 
	C274.045441,312.401794 276.628845,308.184357 271.894867,303.364899 
M424.544891,316.829315 
	C420.212402,319.470490 415.222961,321.431213 411.660919,324.870361 
	C396.083649,339.910217 380.895599,355.354279 365.637329,370.722168 
	C363.668823,372.704834 362.114594,375.098846 360.106110,377.633331 
	C353.244171,370.710083 347.468109,364.723816 341.518646,358.915131 
	C331.343689,348.980865 317.332428,348.690399 308.066071,358.089142 
	C298.991058,367.293884 299.207458,381.299347 308.877960,391.188965 
	C319.941711,402.503326 331.133148,413.697205 342.449677,424.758698 
	C352.881531,434.955475 366.087921,434.817444 376.658813,424.626282 
	C380.975555,420.464630 385.155182,416.160736 389.395630,411.919983 
	C407.888824,393.425720 426.429962,374.979034 444.852264,356.414429 
	C453.083466,348.119690 454.856415,337.835632 450.022339,328.589874 
	C445.268951,319.498444 436.110107,315.053375 424.544891,316.829315 
z"/>
<path fill="#FCAC46" opacity="1.000000" stroke="none" 
	d="
M408.557678,492.327148 
	C413.670532,488.759277 419.262024,485.302460 424.681335,481.593933 
	C451.315613,463.367493 468.623749,438.426422 476.280426,407.228760 
	C485.140320,371.128632 479.510162,337.051788 459.329834,305.683014 
	C447.319244,287.013550 431.192627,272.704376 411.615845,262.259796 
	C410.764160,261.805420 410.058960,261.076508 409.182770,260.136932 
	C431.259888,265.175842 449.745361,276.895630 465.146698,293.405243 
	C522.589478,354.981354 501.487946,454.284119 424.031555,487.218628 
	C419.163513,489.288544 413.988953,490.637695 408.557678,492.327148 
z"/>
<path fill="#455963" opacity="1.000000" stroke="none" 
	d="
M386.839172,206.788452 
	C389.416168,206.856903 391.852020,206.254059 391.832550,209.734299 
	C391.777649,219.539078 391.813354,229.344360 391.813354,239.568787 
	C380.582550,239.568787 369.705261,239.568787 358.436890,239.568787 
	C358.436890,228.917282 358.436890,218.211395 358.436890,206.788544 
	C367.832672,206.788544 377.095795,206.788544 386.839172,206.788452 
z"/>
<path fill="#FCAC46" opacity="1.000000" stroke="none" 
	d="
M408.936401,259.591797 
	C408.246613,259.746033 407.331940,259.633667 406.196472,259.245850 
	C406.887634,259.088654 407.799561,259.206909 408.936401,259.591797 
z"/>
<path fill="#FCAC46" opacity="1.000000" stroke="none" 
	d="
M406.296326,492.952606 
	C406.527710,492.641144 407.069733,492.372589 407.925201,492.181915 
	C407.694733,492.505066 407.150848,492.750305 406.296326,492.952606 
z"/>
<path fill="#EEE6E3" opacity="1.000000" stroke="none" 
	d="
M315.281372,254.304443 
	C315.165100,254.691757 314.864655,254.878662 314.293488,255.045853 
	C314.022736,255.026138 313.759247,254.675217 313.798950,254.337555 
	C314.094543,253.790512 314.387543,253.695221 314.717621,253.714050 
	C314.844177,253.844055 314.970703,253.974060 315.281372,254.304443 
z"/>
<path fill="#040404" opacity="1.000000" stroke="none" 
	d="
M314.900757,253.404175 
	C314.387543,253.695221 314.094543,253.790512 313.667664,254.161743 
	C311.689148,254.556396 309.882233,254.984497 308.073822,254.991150 
	C293.241028,255.045563 278.407837,255.055649 263.575012,255.005920 
	C256.867004,254.983444 254.096573,252.288330 254.065201,245.636414 
	C253.994476,230.637085 253.988556,215.636917 254.068893,200.637680 
	C254.102737,194.317566 256.844269,191.475433 263.268433,191.416641 
	C278.266846,191.279419 293.267944,191.293259 308.266724,191.407608 
	C314.961243,191.458633 317.741974,194.244202 317.786011,200.861755 
	C317.885773,215.860748 317.938049,230.862823 317.694214,245.858536 
	C317.654755,248.283951 315.994781,250.683029 314.900757,253.404175 
M299.242859,239.984863 
	C300.433960,239.233063 302.643829,238.504745 302.661804,237.725906 
	C302.894653,227.621536 302.816132,217.509979 302.816132,207.166626 
	C291.328125,207.166626 280.459595,207.166626 269.471130,207.166626 
	C269.471130,218.241577 269.471130,228.945267 269.471130,239.985901 
	C279.345673,239.985901 288.821655,239.985901 299.242859,239.984863 
z"/>
<path fill="#040404" opacity="1.000000" stroke="none" 
	d="
M139.896179,207.062073 
	C139.896133,219.882980 139.919250,232.214310 139.887756,244.545502 
	C139.867416,252.514389 137.375015,255.004623 129.442932,255.016342 
	C114.945404,255.037750 100.447723,255.050797 85.950279,255.009964 
	C78.940041,254.990219 76.188148,252.347992 76.152016,245.409775 
	C76.075645,230.745956 76.089378,216.081329 76.144791,201.417328 
	C76.172256,194.149017 78.818314,191.441299 86.098549,191.395401 
	C100.095650,191.307144 114.093704,191.361481 128.091354,191.372055 
	C137.757568,191.379349 139.884109,193.499054 139.895996,203.073013 
	C139.897446,204.239487 139.896194,205.405945 139.896179,207.062073 
M107.500732,239.985916 
	C113.108521,239.985916 118.716309,239.985916 124.519897,239.985916 
	C124.519897,228.686508 124.519897,217.984268 124.519897,207.231598 
	C113.281433,207.231598 102.419273,207.231598 91.406845,207.231598 
	C91.406845,218.236725 91.406845,228.809280 91.406845,239.985886 
	C96.619362,239.985886 101.561249,239.985886 107.500732,239.985916 
z"/>
<path fill="#040404" opacity="1.000000" stroke="none" 
	d="
M222.265762,254.879227 
	C206.033768,254.969528 190.229599,255.036789 174.425644,255.001221 
	C168.049026,254.986862 165.157990,252.242310 165.115677,245.959167 
	C165.013748,230.820511 165.018173,215.680283 165.114273,200.541550 
	C165.153061,194.430893 167.845703,191.506607 173.897461,191.437897 
	C189.201187,191.264084 204.509216,191.269562 219.813278,191.425156 
	C226.117386,191.489227 228.778992,194.387115 228.817596,200.829620 
	C228.907333,215.802063 228.852036,230.775406 228.841721,245.748383 
	C228.838699,250.142929 227.347214,253.558868 222.265762,254.879227 
M210.246414,239.984695 
	C211.441040,239.238083 213.657745,238.515030 213.675568,237.741272 
	C213.908585,227.638245 213.830307,217.528061 213.830307,207.162598 
	C202.364838,207.162598 191.500595,207.162598 180.491409,207.162598 
	C180.491409,218.229797 180.491409,228.931122 180.491409,239.985733 
	C190.356918,239.985733 199.828674,239.985733 210.246414,239.984695 
z"/>
<path fill="#020202" opacity="1.000000" stroke="none" 
	d="
M165.086639,305.386383 
	C165.820679,297.739288 167.798309,295.746613 174.748672,295.714569 
	C189.580948,295.646179 204.413986,295.642426 219.246201,295.716217 
	C226.204605,295.750824 228.817368,298.430054 228.847351,305.495544 
	C228.909592,320.161194 228.913055,334.827484 228.844681,349.493103 
	C228.811996,356.503967 226.147476,359.131836 219.137756,359.156097 
	C204.305359,359.207397 189.472519,359.210938 174.640152,359.153961 
	C167.697113,359.127289 165.127289,356.471985 165.102295,349.338745 
	C165.051468,334.839661 165.086655,320.340271 165.086639,305.386383 
M194.504349,310.896606 
	C189.894226,310.896606 185.284119,310.896606 180.448914,310.896606 
	C180.448914,322.210938 180.448914,332.911621 180.448914,343.671814 
	C191.687592,343.671814 202.559937,343.671814 213.583481,343.671814 
	C213.583481,332.701660 213.583481,322.127167 213.583481,310.896393 
	C207.376373,310.896393 201.439651,310.896393 194.504349,310.896606 
z"/>
<path fill="#020303" opacity="1.000000" stroke="none" 
	d="
M76.132996,327.999939 
	C76.133171,320.170258 76.079880,312.840057 76.148796,305.511017 
	C76.215500,298.418335 78.767059,295.751099 85.717514,295.716248 
	C100.543098,295.641846 115.369537,295.646362 130.195190,295.713867 
	C137.213028,295.745880 139.840012,298.377808 139.871155,305.391968 
	C139.936249,320.051025 139.929276,334.710785 139.873627,349.369934 
	C139.846649,356.473114 137.255478,359.127777 130.314377,359.154388 
	C115.488632,359.211212 100.662399,359.207031 85.836617,359.156555 
	C78.828812,359.132690 76.227715,356.521637 76.151024,349.489319 
	C76.074738,342.493622 76.133469,335.496460 76.132996,327.999939 
M124.897881,321.527130 
	C124.897881,318.103668 124.897881,314.680237 124.897881,311.345581 
	C113.212746,311.345581 102.341644,311.345581 91.440079,311.345581 
	C91.440079,322.371643 91.440079,332.946655 91.440079,343.718353 
	C102.638924,343.718353 113.511749,343.718353 124.897713,343.718353 
	C124.897713,336.427307 124.897713,329.473969 124.897881,321.527130 
z"/>
<path fill="#020301" opacity="1.000000" stroke="none" 
	d="
M424.942261,316.720001 
	C436.110107,315.053375 445.268951,319.498444 450.022339,328.589874 
	C454.856415,337.835632 453.083466,348.119690 444.852264,356.414429 
	C426.429962,374.979034 407.888824,393.425720 389.395630,411.919983 
	C385.155182,416.160736 380.975555,420.464630 376.658813,424.626282 
	C366.087921,434.817444 352.881531,434.955475 342.449677,424.758698 
	C331.133148,413.697205 319.941711,402.503326 308.877960,391.188965 
	C299.207458,381.299347 298.991058,367.293884 308.066071,358.089142 
	C317.332428,348.690399 331.343689,348.980865 341.518646,358.915131 
	C347.468109,364.723816 353.244171,370.710083 360.106110,377.633331 
	C362.114594,375.098846 363.668823,372.704834 365.637329,370.722168 
	C380.895599,355.354279 396.083649,339.910217 411.660919,324.870361 
	C415.222961,321.431213 420.212402,319.470490 424.942261,316.720001 
M366.114929,413.753754 
	C388.245850,391.623718 410.380005,369.496948 432.499420,347.355408 
	C433.789307,346.064240 435.159790,344.783997 436.144073,343.271698 
	C438.181641,340.141113 438.026611,336.859436 435.551636,334.076477 
	C432.972443,331.176331 429.634491,330.261230 426.119659,332.294708 
	C424.284760,333.356232 422.691010,334.912445 421.170898,336.428314 
	C403.135742,354.413422 385.141083,372.439087 367.121979,390.440308 
	C360.963257,396.592896 357.941956,396.561279 351.692932,390.325623 
	C344.858185,383.505676 338.092316,376.615753 331.198334,369.856445 
	C326.950409,365.691528 322.240570,365.345703 318.846527,368.688171 
	C315.593597,371.891724 315.908478,376.905884 320.022797,381.079193 
	C330.891602,392.103882 341.821747,403.070465 352.871643,413.913208 
	C357.299133,418.257660 360.484802,418.158569 366.114929,413.753754 
z"/>
<path fill="#455963" opacity="1.000000" stroke="none" 
	d="
M298.770264,239.985382 
	C288.821655,239.985901 279.345673,239.985901 269.471130,239.985901 
	C269.471130,228.945267 269.471130,218.241577 269.471130,207.166626 
	C280.459595,207.166626 291.328125,207.166626 302.816132,207.166626 
	C302.816132,217.509979 302.894653,227.621536 302.661804,237.725906 
	C302.643829,238.504745 300.433960,239.233063 298.770264,239.985382 
z"/>
<path fill="#455963" opacity="1.000000" stroke="none" 
	d="
M107.001938,239.985901 
	C101.561249,239.985886 96.619362,239.985886 91.406845,239.985886 
	C91.406845,228.809280 91.406845,218.236725 91.406845,207.231598 
	C102.419273,207.231598 113.281433,207.231598 124.519897,207.231598 
	C124.519897,217.984268 124.519897,228.686508 124.519897,239.985916 
	C118.716309,239.985916 113.108521,239.985916 107.001938,239.985901 
z"/>
<path fill="#455963" opacity="1.000000" stroke="none" 
	d="
M209.773407,239.985214 
	C199.828674,239.985733 190.356918,239.985733 180.491409,239.985733 
	C180.491409,228.931122 180.491409,218.229797 180.491409,207.162598 
	C191.500595,207.162598 202.364838,207.162598 213.830307,207.162598 
	C213.830307,217.528061 213.908585,227.638245 213.675568,237.741272 
	C213.657745,238.515030 211.441040,239.238083 209.773407,239.985214 
z"/>
<path fill="#455963" opacity="1.000000" stroke="none" 
	d="
M195.003632,310.896484 
	C201.439651,310.896393 207.376373,310.896393 213.583481,310.896393 
	C213.583481,322.127167 213.583481,332.701660 213.583481,343.671814 
	C202.559937,343.671814 191.687592,343.671814 180.448914,343.671814 
	C180.448914,332.911621 180.448914,322.210938 180.448914,310.896606 
	C185.284119,310.896606 189.894226,310.896606 195.003632,310.896484 
z"/>
<path fill="#455963" opacity="1.000000" stroke="none" 
	d="
M124.897797,322.023865 
	C124.897713,329.473969 124.897713,336.427307 124.897713,343.718353 
	C113.511749,343.718353 102.638924,343.718353 91.440079,343.718353 
	C91.440079,332.946655 91.440079,322.371643 91.440079,311.345581 
	C102.341644,311.345581 113.212746,311.345581 124.897881,311.345581 
	C124.897881,314.680237 124.897881,318.103668 124.897797,322.023865 
z"/>
<path fill="#00B46A" opacity="1.000000" stroke="none" 
	d="
M365.850708,414.011719 
	C360.484802,418.158569 357.299133,418.257660 352.871643,413.913208 
	C341.821747,403.070465 330.891602,392.103882 320.022797,381.079193 
	C315.908478,376.905884 315.593597,371.891724 318.846527,368.688171 
	C322.240570,365.345703 326.950409,365.691528 331.198334,369.856445 
	C338.092316,376.615753 344.858185,383.505676 351.692932,390.325623 
	C357.941956,396.561279 360.963257,396.592896 367.121979,390.440308 
	C385.141083,372.439087 403.135742,354.413422 421.170898,336.428314 
	C422.691010,334.912445 424.284760,333.356232 426.119659,332.294708 
	C429.634491,330.261230 432.972443,331.176331 435.551636,334.076477 
	C438.026611,336.859436 438.181641,340.141113 436.144073,343.271698 
	C435.159790,344.783997 433.789307,346.064240 432.499420,347.355408 
	C410.380005,369.496948 388.245850,391.623718 365.850708,414.011719 
z"/>
</svg>