<?xml version="1.0" standalone="no"?>
<!DOCTYPE svg PUBLIC "-//W3C//DTD SVG 20010904//EN"
 "http://www.w3.org/TR/2001/REC-SVG-20010904/DTD/svg10.dtd">
<svg version="1.0" xmlns="http://www.w3.org/2000/svg"
 width="500.000000pt" height="500.000000pt" viewBox="0 0 500.000000 500.000000"
 preserveAspectRatio="xMidYMid meet">

<g transform="translate(0.000000,500.000000) scale(0.100000,-0.100000)"
fill="#000000" stroke="none">
<path d="M1523 4989 c-198 -34 -375 -165 -472 -350 -71 -136 -86 -147 -255
-189 -287 -71 -476 -230 -583 -490 -100 -243 -106 -571 -18 -968 l23 -107 -25
-75 c-50 -147 -28 -318 56 -446 100 -153 241 -233 420 -239 l94 -4 46 -88
c129 -247 335 -474 566 -621 39 -24 71 -46 73 -47 2 -2 -44 -48 -101 -104
-146 -143 -297 -351 -297 -411 0 -52 72 -89 111 -58 9 7 36 47 62 88 66 108
194 257 288 336 l81 68 69 -24 69 -24 0 -543 0 -543 -135 0 -135 0 0 194 c0
174 -2 196 -19 217 -26 33 -86 32 -112 -2 -17 -22 -19 -44 -19 -216 l0 -193
-150 0 -150 0 0 48 c0 64 15 156 46 285 21 87 24 113 15 133 -23 52 -105 51
-129 -2 -39 -85 -82 -333 -82 -476 0 -92 1 -97 26 -117 l27 -21 1344 0 1344 0
24 25 c29 28 31 56 15 216 -17 166 -61 348 -124 509 -4 10 12 27 52 54 95 65
223 167 294 235 77 72 86 103 43 146 -42 43 -58 36 -182 -72 -82 -71 -258
-203 -270 -203 -4 0 -24 26 -43 57 -55 89 -180 242 -258 315 -40 37 -72 70
-72 72 0 2 30 23 68 47 148 93 318 251 428 397 32 42 61 81 65 86 9 10 499
-291 499 -306 0 -6 -31 -50 -69 -98 -38 -48 -74 -97 -80 -108 -18 -34 -3 -71
36 -90 31 -15 37 -15 61 -1 61 34 256 311 367 522 75 142 89 198 83 322 l-5
100 76 50 c370 246 335 810 -63 1009 -121 61 -158 66 -468 66 -216 0 -278 3
-278 13 0 19 -93 207 -132 268 -34 54 -35 58 -42 190 -19 358 -78 603 -192
799 -21 37 -75 103 -124 152 -72 72 -103 94 -181 132 -52 25 -132 55 -179 68
-83 21 -100 22 -730 24 -355 1 -668 -2 -697 -7z m2016 -1428 c11 -15 39 -66
61 -112 l41 -84 -713 -5 -713 -5 -80 -27 c-164 -56 -286 -163 -356 -312 -158
-337 19 -724 381 -833 48 -15 140 -17 753 -20 383 -2 697 -6 697 -9 0 -13 -59
-119 -107 -191 -216 -325 -550 -549 -946 -635 -146 -32 -446 -32 -590 0 -460
101 -820 377 -1031 790 -103 201 -154 401 -160 622 -9 302 52 529 178 667 71
78 189 150 283 172 21 5 542 9 1160 10 l1122 1 20 -29z m-2917 -726 c-4 -195
6 -294 46 -455 28 -109 28 -110 7 -110 -39 0 -137 30 -180 56 -235 137 -237
493 -4 636 25 16 106 47 124 48 6 0 9 -62 7 -175z m3703 13 c15 -7 33 -24 41
-39 23 -45 17 -78 -20 -115 l-34 -34 -634 0 c-602 0 -635 1 -664 19 -42 26
-60 71 -44 111 7 17 24 40 38 50 24 19 43 20 658 20 469 0 640 -3 659 -12z
m61 -704 c19 -77 -11 -187 -89 -319 -16 -27 -37 -64 -47 -82 l-17 -32 -134 86
c-114 74 -207 131 -341 212 -16 9 -28 20 -28 25 0 5 12 35 26 67 l27 59 291 3
c160 1 294 3 298 5 4 1 11 -10 14 -24z m-1409 -912 c298 -248 479 -601 518
-1009 l7 -73 -361 0 -361 0 0 539 0 539 63 25 c34 15 65 26 69 27 4 0 33 -22
65 -48z m-982 -64 c100 -19 458 -16 552 4 40 8 75 13 78 10 3 -3 5 -236 5
-519 l0 -513 -375 0 -375 0 0 521 0 521 23 -5 c12 -3 54 -12 92 -19z"/>
<path d="M2205 1998 c-29 -16 -35 -28 -35 -69 0 -30 7 -43 41 -74 68 -61 120
-80 224 -80 104 0 156 19 223 79 64 58 65 120 2 146 -34 14 -59 6 -127 -44
-65 -47 -153 -41 -217 14 -39 34 -82 45 -111 28z"/>
</g>
</svg>
